<?xml version="1.0" encoding="iso-8859-1"?>
<!-- Generator: Adobe Illustrator 19.0.0, SVG Export Plug-In . SVG Version: 6.00 Build 0)  -->
<svg version="1.1" id="Layer_1" xmlns="http://www.w3.org/2000/svg" xmlns:xlink="http://www.w3.org/1999/xlink" x="0px" y="0px"
	 viewBox="0 0 512.002 512.002" style="enable-background:new 0 0 512.002 512.002;" xml:space="preserve">
<path style="fill:#FF4D30;" d="M256,36.045C134.715,36.045,36.044,134.716,36.044,256S134.715,475.955,256,475.955
	c121.284,0,219.955-98.671,219.955-219.955S377.284,36.045,256,36.045z"/>
<path style="opacity:0.1;fill:#231F20;enable-background:new    ;" d="M61.644,256c0-116.986,91.806-212.921,207.156-219.573
	c-4.237-0.244-8.503-0.382-12.8-0.382C134.715,36.045,36.044,134.716,36.044,256S134.715,475.955,256,475.955
	c4.297,0,8.563-0.138,12.8-0.382C153.45,468.921,61.644,372.986,61.644,256z"/>
<path style="fill:#90C8EC;" d="M488.587,362.926c0.12-0.26,0.233-0.529,0.352-0.79c0.529-1.155,1.041-2.32,1.553-3.484
	c0.36-0.818,0.725-1.633,1.076-2.455c0.531-1.242,1.042-2.494,1.553-3.746c0.308-0.756,0.627-1.507,0.928-2.267
	c0.582-1.467,1.141-2.945,1.697-4.427c0.209-0.555,0.429-1.104,0.632-1.662c0.752-2.045,1.478-4.102,2.179-6.17
	c0.135-0.398,0.257-0.804,0.392-1.203c0.557-1.67,1.103-3.344,1.627-5.029c0.23-0.743,0.443-1.494,0.668-2.239
	c0.405-1.352,0.811-2.705,1.195-4.065c0.238-0.847,0.461-1.7,0.691-2.55c0.344-1.272,0.688-2.543,1.013-3.824
	c0.228-0.902,0.443-1.806,0.663-2.711c0.301-1.239,0.598-2.48,0.88-3.725c0.211-0.936,0.413-1.875,0.614-2.814
	c0.264-1.228,0.523-2.456,0.768-3.691c0.189-0.955,0.372-1.914,0.552-2.874c0.229-1.23,0.452-2.463,0.664-3.698
	c0.166-0.967,0.327-1.937,0.484-2.907c0.198-1.242,0.386-2.489,0.568-3.736c0.139-0.971,0.278-1.94,0.408-2.914
	c0.167-1.264,0.322-2.531,0.471-3.801c0.115-0.965,0.229-1.93,0.333-2.898c0.138-1.299,0.258-2.602,0.376-3.907
	c0.086-0.946,0.177-1.89,0.254-2.839c0.109-1.366,0.196-2.736,0.283-4.106c0.057-0.895,0.122-1.785,0.169-2.682
	c0.08-1.517,0.135-3.041,0.189-4.566c0.026-0.757,0.067-1.51,0.086-2.27c0.061-2.285,0.095-4.575,0.095-6.874
	c0-13.234-1.008-26.236-2.954-38.934C490.236,94.317,383.927,0,256,0S21.764,94.317,2.954,217.066C1.008,229.764,0,242.766,0,256
	c0,2.298,0.033,4.589,0.095,6.874c0.02,0.759,0.06,1.513,0.086,2.27c0.055,1.524,0.109,3.048,0.189,4.566
	c0.047,0.897,0.114,1.788,0.169,2.682c0.087,1.37,0.174,2.741,0.283,4.106c0.076,0.949,0.167,1.893,0.254,2.839
	c0.118,1.305,0.238,2.608,0.376,3.907c0.104,0.968,0.218,1.933,0.333,2.898c0.149,1.27,0.303,2.537,0.471,3.801
	c0.13,0.974,0.269,1.943,0.408,2.914c0.181,1.248,0.37,2.494,0.568,3.736c0.157,0.971,0.317,1.94,0.484,2.907
	c0.211,1.234,0.435,2.468,0.664,3.698c0.18,0.959,0.363,1.919,0.552,2.874c0.246,1.234,0.504,2.464,0.769,3.691
	c0.201,0.939,0.402,1.879,0.614,2.814c0.283,1.245,0.581,2.485,0.88,3.725c0.219,0.905,0.435,1.81,0.663,2.711
	c0.325,1.28,0.67,2.552,1.013,3.824c0.23,0.85,0.453,1.703,0.691,2.55c0.385,1.361,0.79,2.714,1.195,4.065
	c0.224,0.746,0.437,1.496,0.668,2.239c0.524,1.685,1.071,3.359,1.627,5.029c0.134,0.4,0.257,0.805,0.392,1.203
	c0.701,2.068,1.427,4.125,2.179,6.17c0.205,0.558,0.424,1.106,0.632,1.662c0.557,1.48,1.115,2.958,1.697,4.427
	c0.302,0.76,0.62,1.512,0.928,2.267c0.511,1.252,1.022,2.504,1.553,3.746c0.351,0.823,0.716,1.637,1.076,2.455
	c0.511,1.164,1.024,2.328,1.552,3.484c0.119,0.262,0.232,0.53,0.352,0.79l0.152,0.287c3.75,8.098,7.91,15.97,12.456,23.585
	l0.152,0.287c0.209,0.348,0.424,0.692,0.633,1.04c0.225,0.372,0.451,0.741,0.677,1.112c0.915,1.496,1.842,2.985,2.787,4.461
	c0.049,0.076,0.096,0.152,0.145,0.228c0.989,1.54,1.999,3.066,3.021,4.584c0.242,0.36,0.485,0.719,0.728,1.076
	c1.02,1.5,2.05,2.993,3.1,4.47c0.012,0.017,0.023,0.033,0.035,0.05c1.064,1.495,2.149,2.973,3.243,4.444
	c0.258,0.346,0.518,0.691,0.776,1.037c1.103,1.466,2.217,2.925,3.35,4.366c0.003,0.003,0.007,0.008,0.009,0.011
	c1.13,1.436,2.278,2.855,3.437,4.266c0.272,0.331,0.543,0.66,0.817,0.99c1.168,1.408,2.345,2.807,3.544,4.191
	c0.046,0.053,0.093,0.106,0.139,0.158c1.159,1.335,2.333,2.655,3.517,3.965c0.285,0.314,0.57,0.628,0.855,0.942
	c1.231,1.347,2.472,2.685,3.731,4.006c0.087,0.091,0.176,0.181,0.263,0.273c1.187,1.242,2.389,2.47,3.601,3.689
	c0.296,0.297,0.59,0.593,0.888,0.889c1.289,1.283,2.589,2.558,3.907,3.814c0.128,0.122,0.258,0.244,0.387,0.365
	c1.215,1.155,2.443,2.297,3.683,3.428c0.304,0.279,0.61,0.559,0.916,0.836c1.347,1.22,2.704,2.428,4.075,3.617
	c0.166,0.144,0.335,0.285,0.5,0.429c1.248,1.076,2.507,2.139,3.775,3.192c0.311,0.258,0.621,0.518,0.934,0.774
	c1.402,1.153,2.815,2.295,4.242,3.418c0.199,0.158,0.401,0.311,0.601,0.467c1.28,1.002,2.572,1.991,3.871,2.97
	c0.316,0.238,0.631,0.476,0.949,0.713c1.456,1.086,2.922,2.158,4.402,3.213c0.229,0.164,0.461,0.324,0.69,0.485
	c1.317,0.933,2.642,1.851,3.977,2.759c0.318,0.216,0.634,0.434,0.954,0.649c1.506,1.015,3.024,2.017,4.552,2.999
	c0.262,0.168,0.528,0.334,0.79,0.502c1.347,0.859,2.704,1.706,4.068,2.541c0.322,0.198,0.641,0.395,0.963,0.591
	c1.554,0.942,3.12,1.869,4.695,2.778c0.29,0.167,0.581,0.331,0.873,0.496c1.383,0.792,2.776,1.57,4.176,2.339
	c0.319,0.175,0.637,0.352,0.957,0.525c1.601,0.867,3.21,1.719,4.831,2.552c0.318,0.164,0.638,0.324,0.957,0.485
	c1.418,0.723,2.846,1.432,4.279,2.13c0.317,0.154,0.632,0.309,0.951,0.463c1.644,0.79,3.298,1.563,4.961,2.32
	c0.342,0.156,0.687,0.307,1.03,0.462c1.46,0.656,2.927,1.299,4.402,1.928c0.306,0.131,0.611,0.264,0.918,0.395
	c1.685,0.712,3.38,1.405,5.084,2.08c0.367,0.147,0.737,0.289,1.105,0.434c1.499,0.587,3.004,1.161,4.517,1.72
	c0.297,0.11,0.591,0.223,0.888,0.332c1.725,0.63,3.459,1.241,5.202,1.835c0.388,0.131,0.777,0.26,1.166,0.392
	c1.546,0.52,3.098,1.025,4.657,1.515c0.278,0.088,0.554,0.178,0.834,0.265c1.762,0.546,3.534,1.073,5.313,1.584
	c0.411,0.117,0.823,0.233,1.233,0.348c1.591,0.447,3.184,0.882,4.787,1.298c0.259,0.068,0.518,0.139,0.777,0.206
	c1.798,0.461,3.604,0.902,5.417,1.325c0.429,0.1,0.858,0.197,1.287,0.295c1.643,0.375,3.291,0.737,4.945,1.08
	c0.23,0.048,0.46,0.099,0.69,0.147c1.833,0.375,3.676,0.726,5.523,1.061c0.442,0.08,0.885,0.158,1.328,0.236
	c1.705,0.301,3.416,0.587,5.134,0.854c0.189,0.029,0.378,0.062,0.57,0.091c1.865,0.285,3.739,0.543,5.619,0.788
	c0.459,0.06,0.918,0.117,1.378,0.174c1.775,0.22,3.553,0.429,5.338,0.612c0.141,0.016,0.28,0.032,0.421,0.047
	c1.899,0.193,3.804,0.357,5.714,0.509c0.471,0.037,0.942,0.072,1.411,0.107c1.854,0.137,3.713,0.258,5.579,0.355
	c0.079,0.003,0.158,0.01,0.238,0.013c1.929,0.098,3.868,0.167,5.808,0.221c0.477,0.013,0.955,0.026,1.432,0.037
	c1.951,0.043,3.907,0.073,5.868,0.073c1.962,0,3.918-0.03,5.869-0.073c0.477-0.011,0.955-0.023,1.432-0.037
	c1.94-0.055,3.878-0.124,5.808-0.221c0.08-0.003,0.159-0.01,0.238-0.013c1.865-0.097,3.724-0.218,5.579-0.355
	c0.471-0.033,0.942-0.07,1.411-0.107c1.91-0.151,3.816-0.316,5.714-0.509c0.14-0.014,0.279-0.031,0.421-0.047
	c1.785-0.184,3.563-0.392,5.338-0.612c0.46-0.057,0.919-0.115,1.378-0.174c1.879-0.245,3.753-0.503,5.619-0.788
	c0.191-0.029,0.381-0.062,0.57-0.091c1.719-0.266,3.429-0.553,5.134-0.854c0.443-0.078,0.886-0.156,1.328-0.236
	c1.847-0.335,3.69-0.686,5.523-1.061c0.23-0.048,0.46-0.099,0.69-0.147c1.654-0.343,3.302-0.705,4.945-1.08
	c0.43-0.098,0.858-0.195,1.287-0.295c1.813-0.424,3.62-0.864,5.417-1.325c0.259-0.067,0.518-0.138,0.777-0.206
	c1.603-0.416,3.197-0.85,4.787-1.298c0.411-0.116,0.823-0.23,1.233-0.348c1.779-0.511,3.549-1.037,5.311-1.584
	c0.279-0.087,0.555-0.177,0.834-0.265c1.558-0.49,3.111-0.996,4.657-1.515c0.39-0.13,0.778-0.259,1.166-0.392
	c1.742-0.594,3.477-1.205,5.202-1.835c0.297-0.109,0.591-0.222,0.888-0.332c1.512-0.559,3.017-1.133,4.517-1.72
	c0.368-0.145,0.738-0.287,1.105-0.434c1.704-0.676,3.4-1.368,5.084-2.08c0.307-0.13,0.612-0.263,0.918-0.395
	c1.475-0.629,2.943-1.273,4.402-1.928c0.343-0.155,0.688-0.306,1.03-0.462c1.663-0.757,3.317-1.529,4.961-2.32
	c0.317-0.152,0.631-0.308,0.948-0.463c1.435-0.697,2.863-1.408,4.283-2.13c0.317-0.162,0.637-0.322,0.954-0.485
	c1.622-0.834,3.231-1.685,4.832-2.552c0.321-0.173,0.638-0.349,0.957-0.525c1.4-0.767,2.793-1.546,4.176-2.339
	c0.292-0.166,0.582-0.329,0.873-0.496c1.575-0.909,3.14-1.837,4.695-2.778c0.322-0.196,0.641-0.393,0.963-0.591
	c1.366-0.835,2.721-1.682,4.068-2.541c0.263-0.168,0.529-0.334,0.79-0.502c1.528-0.983,3.045-1.983,4.552-2.999
	c0.319-0.215,0.636-0.433,0.954-0.649c1.335-0.908,2.661-1.828,3.977-2.759c0.229-0.163,0.461-0.322,0.69-0.485
	c1.48-1.054,2.946-2.127,4.402-3.213c0.317-0.237,0.632-0.475,0.949-0.713c1.299-0.978,2.59-1.968,3.871-2.97
	c0.2-0.157,0.402-0.309,0.601-0.467c1.427-1.124,2.84-2.265,4.242-3.418c0.313-0.256,0.623-0.515,0.934-0.774
	c1.269-1.053,2.528-2.116,3.775-3.192c0.165-0.144,0.334-0.285,0.5-0.429c1.371-1.19,2.728-2.397,4.075-3.617
	c0.306-0.277,0.612-0.557,0.916-0.836c1.239-1.132,2.468-2.273,3.683-3.428c0.128-0.121,0.259-0.243,0.387-0.365
	c1.318-1.257,2.618-2.53,3.907-3.814c0.297-0.296,0.592-0.592,0.888-0.889c1.212-1.219,2.414-2.445,3.601-3.689
	c0.087-0.091,0.176-0.181,0.263-0.273c1.259-1.32,2.499-2.659,3.731-4.006c0.285-0.313,0.57-0.627,0.855-0.942
	c1.184-1.31,2.359-2.629,3.517-3.965c0.046-0.052,0.094-0.105,0.139-0.158c1.198-1.382,2.376-2.783,3.544-4.191
	c0.274-0.329,0.545-0.659,0.817-0.99c1.159-1.411,2.307-2.83,3.437-4.266c0.002-0.003,0.006-0.008,0.009-0.011
	c1.132-1.441,2.246-2.9,3.35-4.366c0.258-0.346,0.518-0.691,0.776-1.037c1.094-1.471,2.179-2.95,3.243-4.444
	c0.011-0.017,0.023-0.033,0.035-0.05c1.05-1.477,2.08-2.97,3.1-4.47c0.244-0.357,0.487-0.716,0.728-1.076
	c1.022-1.517,2.031-3.043,3.021-4.584c0.049-0.076,0.096-0.152,0.145-0.228c0.945-1.476,1.872-2.965,2.787-4.461
	c0.226-0.371,0.452-0.74,0.677-1.112c0.21-0.347,0.425-0.691,0.633-1.04l0.152-0.287c4.546-7.617,8.706-15.487,12.456-23.585
	L488.587,362.926z M256,468.164c-67.633,0-127.977-31.811-166.854-81.255c-28.37-36.083-45.31-81.554-45.31-130.908
	s16.939-94.826,45.31-130.908C128.023,75.647,188.367,43.836,256,43.836s127.977,31.811,166.854,81.256
	c28.37,36.083,45.31,81.554,45.31,130.908s-16.939,94.826-45.31,130.908C383.977,436.353,323.633,468.164,256,468.164z"/>
<g style="opacity:0.1;">
	<path style="fill:#231F20;" d="M260.7,511.667c-0.079-0.003-0.159-0.01-0.237-0.013c-1.865-0.097-3.724-0.218-5.579-0.355
		c-0.472-0.033-0.942-0.07-1.412-0.107c-1.91-0.151-3.817-0.316-5.714-0.509c-0.141-0.014-0.28-0.031-0.422-0.047
		c-1.785-0.184-3.563-0.392-5.337-0.612c-0.461-0.057-0.919-0.115-1.378-0.174c-1.879-0.245-3.754-0.503-5.62-0.788
		c-0.19-0.029-0.38-0.062-0.57-0.091c-1.717-0.266-3.428-0.553-5.134-0.854c-0.442-0.078-0.885-0.156-1.327-0.236
		c-1.847-0.335-3.69-0.686-5.523-1.061c-0.23-0.048-0.461-0.099-0.691-0.147c-1.654-0.343-3.302-0.705-4.945-1.08
		c-0.429-0.098-0.858-0.195-1.287-0.295c-1.813-0.424-3.62-0.864-5.417-1.325c-0.258-0.067-0.518-0.138-0.776-0.206
		c-1.602-0.416-3.198-0.85-4.787-1.298c-0.411-0.116-0.824-0.23-1.233-0.348c-1.78-0.511-3.551-1.037-5.311-1.584
		c-0.279-0.087-0.557-0.177-0.835-0.265c-1.558-0.49-3.11-0.996-4.656-1.515c-0.39-0.13-0.779-0.259-1.166-0.392
		c-1.743-0.594-3.478-1.205-5.202-1.835c-0.298-0.109-0.591-0.221-0.888-0.332c-1.512-0.559-3.019-1.133-4.517-1.72
		c-0.37-0.145-0.739-0.287-1.106-0.434c-1.704-0.676-3.399-1.368-5.084-2.08c-0.306-0.13-0.611-0.263-0.917-0.395
		c-1.475-0.629-2.943-1.273-4.402-1.928c-0.344-0.155-0.688-0.306-1.031-0.462c-1.663-0.757-3.317-1.529-4.96-2.32
		c-0.318-0.154-0.633-0.309-0.951-0.463c-1.434-0.698-2.859-1.408-4.28-2.13c-0.318-0.163-0.639-0.322-0.956-0.485
		c-1.621-0.834-3.23-1.685-4.831-2.552c-0.321-0.173-0.639-0.349-0.957-0.525c-1.401-0.767-2.793-1.546-4.177-2.339
		c-0.292-0.166-0.583-0.329-0.872-0.496c-1.576-0.909-3.141-1.837-4.695-2.778c-0.323-0.196-0.642-0.393-0.964-0.591
		c-1.365-0.835-2.72-1.682-4.067-2.541c-0.263-0.168-0.529-0.334-0.791-0.502c-1.528-0.983-3.045-1.983-4.552-2.999
		c-0.318-0.215-0.634-0.433-0.954-0.649c-1.335-0.908-2.661-1.828-3.976-2.759c-0.23-0.163-0.461-0.322-0.691-0.485
		c-1.479-1.054-2.945-2.127-4.402-3.213c-0.317-0.237-0.632-0.475-0.948-0.713c-1.3-0.978-2.591-1.968-3.872-2.97
		c-0.2-0.157-0.401-0.309-0.6-0.467c-1.428-1.124-2.842-2.265-4.244-3.418c-0.312-0.256-0.622-0.515-0.933-0.774
		c-1.27-1.053-2.528-2.116-3.777-3.192c-0.165-0.144-0.333-0.285-0.499-0.429c-1.372-1.19-2.729-2.397-4.075-3.617
		c-0.306-0.277-0.612-0.557-0.917-0.836c-1.238-1.132-2.467-2.273-3.682-3.428c-0.129-0.121-0.259-0.243-0.388-0.365
		c-1.318-1.257-2.618-2.53-3.907-3.814c-0.297-0.296-0.591-0.592-0.887-0.889c-1.212-1.219-2.414-2.445-3.601-3.689
		c-0.088-0.091-0.177-0.181-0.264-0.273c-1.259-1.32-2.498-2.659-3.73-4.006c-0.286-0.313-0.571-0.627-0.855-0.942
		c-1.184-1.31-2.36-2.629-3.518-3.965c-0.046-0.052-0.092-0.105-0.139-0.158c-1.197-1.382-2.376-2.783-3.544-4.191
		c-0.274-0.329-0.545-0.659-0.816-0.99c-1.159-1.411-2.307-2.83-3.437-4.266c-0.003-0.003-0.006-0.008-0.009-0.011
		c-1.134-1.441-2.247-2.899-3.35-4.366c-0.259-0.346-0.519-0.691-0.777-1.037c-1.093-1.471-2.178-2.95-3.242-4.444
		c-0.012-0.017-0.023-0.033-0.036-0.05c-1.05-1.477-2.08-2.97-3.1-4.47c-0.244-0.357-0.488-0.716-0.728-1.076
		c-1.022-1.517-2.03-3.043-3.02-4.584c-0.05-0.076-0.096-0.152-0.145-0.228c-0.945-1.476-1.872-2.965-2.788-4.461
		c-0.226-0.371-0.452-0.74-0.676-1.112c-0.21-0.347-0.426-0.691-0.634-1.04l-0.151-0.287c-4.546-7.617-8.707-15.487-12.457-23.585
		l-0.152-0.287c-0.119-0.26-0.232-0.529-0.352-0.79c-0.529-1.155-1.041-2.32-1.553-3.484c-0.358-0.818-0.723-1.633-1.076-2.455
		c-0.531-1.242-1.041-2.494-1.553-3.747c-0.308-0.756-0.627-1.507-0.928-2.267c-0.582-1.467-1.141-2.945-1.697-4.427
		c-0.209-0.555-0.429-1.104-0.633-1.662c-0.751-2.045-1.478-4.102-2.178-6.17c-0.135-0.398-0.258-0.804-0.392-1.203
		c-0.557-1.67-1.104-3.344-1.627-5.029c-0.23-0.744-0.443-1.494-0.668-2.239c-0.405-1.352-0.811-2.705-1.195-4.065
		c-0.238-0.847-0.462-1.7-0.691-2.55c-0.345-1.272-0.688-2.543-1.014-3.824c-0.228-0.902-0.443-1.806-0.663-2.711
		c-0.301-1.239-0.598-2.48-0.88-3.725c-0.21-0.936-0.413-1.875-0.613-2.814c-0.264-1.228-0.523-2.456-0.768-3.691
		c-0.19-0.955-0.373-1.914-0.552-2.874c-0.229-1.23-0.452-2.463-0.664-3.698c-0.167-0.967-0.328-1.937-0.483-2.907
		c-0.199-1.242-0.386-2.489-0.568-3.736c-0.14-0.971-0.279-1.94-0.408-2.914c-0.168-1.264-0.322-2.531-0.471-3.801
		c-0.116-0.965-0.23-1.93-0.333-2.898c-0.139-1.299-0.258-2.602-0.376-3.907c-0.087-0.946-0.178-1.89-0.255-2.839
		c-0.109-1.366-0.195-2.736-0.282-4.106c-0.058-0.895-0.122-1.785-0.17-2.682c-0.08-1.517-0.135-3.041-0.188-4.566
		c-0.027-0.757-0.066-1.51-0.086-2.27c-0.059-2.282-0.093-4.572-0.093-6.871c0-13.234,1.01-26.236,2.955-38.934
		C39.135,97.179,140.979,4.43,264.904,0.169C261.948,0.069,258.982,0,256,0C128.073,0,21.764,94.317,2.954,217.066
		C1.008,229.764,0,242.766,0,256c0,2.298,0.033,4.589,0.095,6.874c0.02,0.759,0.06,1.513,0.086,2.27
		c0.055,1.524,0.109,3.048,0.189,4.566c0.047,0.897,0.114,1.788,0.169,2.682c0.087,1.37,0.174,2.741,0.283,4.106
		c0.076,0.949,0.167,1.893,0.254,2.839c0.118,1.305,0.238,2.608,0.376,3.907c0.104,0.968,0.218,1.933,0.333,2.898
		c0.149,1.27,0.303,2.537,0.471,3.801c0.13,0.974,0.269,1.943,0.408,2.914c0.181,1.248,0.37,2.494,0.568,3.736
		c0.157,0.971,0.317,1.94,0.484,2.907c0.211,1.234,0.435,2.468,0.664,3.698c0.18,0.959,0.363,1.919,0.552,2.874
		c0.246,1.234,0.504,2.464,0.769,3.691c0.201,0.939,0.402,1.879,0.614,2.814c0.283,1.245,0.581,2.485,0.88,3.725
		c0.219,0.905,0.435,1.81,0.663,2.711c0.325,1.28,0.67,2.552,1.013,3.824c0.23,0.85,0.453,1.703,0.691,2.55
		c0.385,1.361,0.79,2.714,1.195,4.065c0.224,0.746,0.437,1.496,0.668,2.239c0.524,1.685,1.071,3.359,1.627,5.029
		c0.134,0.4,0.257,0.805,0.392,1.203c0.701,2.068,1.427,4.125,2.179,6.17c0.205,0.558,0.424,1.106,0.632,1.662
		c0.557,1.48,1.115,2.958,1.697,4.427c0.302,0.76,0.62,1.512,0.928,2.267c0.511,1.252,1.022,2.504,1.553,3.746
		c0.351,0.823,0.716,1.637,1.076,2.455c0.511,1.164,1.024,2.328,1.552,3.484c0.119,0.262,0.232,0.53,0.352,0.79l0.152,0.287
		c3.75,8.098,7.91,15.97,12.456,23.585l0.152,0.287c0.209,0.348,0.424,0.692,0.633,1.04c0.225,0.372,0.451,0.741,0.677,1.112
		c0.915,1.496,1.842,2.985,2.787,4.461c0.049,0.076,0.096,0.152,0.145,0.228c0.989,1.54,1.999,3.066,3.021,4.584
		c0.242,0.36,0.485,0.719,0.728,1.076c1.02,1.5,2.05,2.993,3.1,4.47c0.012,0.017,0.023,0.033,0.035,0.05
		c1.064,1.495,2.149,2.973,3.243,4.444c0.258,0.346,0.518,0.691,0.776,1.037c1.103,1.466,2.217,2.925,3.35,4.366
		c0.003,0.003,0.007,0.008,0.009,0.011c1.13,1.436,2.278,2.855,3.437,4.266c0.272,0.331,0.543,0.66,0.817,0.99
		c1.168,1.408,2.345,2.807,3.544,4.191c0.046,0.053,0.093,0.106,0.139,0.158c1.159,1.335,2.333,2.655,3.517,3.965
		c0.285,0.314,0.57,0.628,0.855,0.942c1.231,1.347,2.472,2.685,3.731,4.006c0.087,0.091,0.176,0.181,0.263,0.273
		c1.187,1.242,2.389,2.47,3.601,3.689c0.296,0.297,0.59,0.593,0.888,0.889c1.289,1.283,2.589,2.558,3.907,3.814
		c0.128,0.122,0.258,0.244,0.387,0.365c1.215,1.155,2.443,2.297,3.683,3.428c0.304,0.279,0.61,0.559,0.916,0.836
		c1.347,1.22,2.704,2.428,4.075,3.617c0.166,0.144,0.335,0.285,0.5,0.429c1.248,1.076,2.507,2.139,3.775,3.192
		c0.311,0.258,0.621,0.518,0.934,0.774c1.402,1.153,2.815,2.295,4.242,3.418c0.199,0.158,0.401,0.311,0.601,0.467
		c1.28,1.002,2.572,1.991,3.871,2.97c0.316,0.238,0.631,0.476,0.949,0.713c1.456,1.086,2.922,2.158,4.402,3.213
		c0.229,0.164,0.461,0.324,0.69,0.485c1.317,0.933,2.642,1.851,3.977,2.759c0.318,0.216,0.634,0.434,0.954,0.649
		c1.506,1.015,3.024,2.017,4.552,2.999c0.262,0.168,0.528,0.334,0.79,0.502c1.347,0.859,2.704,1.706,4.068,2.541
		c0.322,0.198,0.641,0.395,0.963,0.591c1.554,0.942,3.12,1.869,4.695,2.778c0.29,0.167,0.581,0.331,0.873,0.496
		c1.383,0.792,2.776,1.57,4.176,2.339c0.319,0.175,0.637,0.352,0.957,0.525c1.601,0.867,3.21,1.719,4.831,2.552
		c0.318,0.164,0.638,0.324,0.957,0.485c1.418,0.723,2.846,1.432,4.279,2.13c0.317,0.154,0.632,0.309,0.951,0.463
		c1.644,0.79,3.298,1.563,4.961,2.32c0.342,0.156,0.687,0.307,1.03,0.462c1.46,0.656,2.927,1.299,4.402,1.928
		c0.306,0.131,0.611,0.264,0.918,0.395c1.685,0.712,3.38,1.405,5.084,2.08c0.367,0.147,0.737,0.289,1.105,0.434
		c1.499,0.587,3.004,1.161,4.517,1.72c0.297,0.11,0.591,0.223,0.888,0.332c1.725,0.63,3.459,1.241,5.202,1.835
		c0.388,0.131,0.777,0.26,1.166,0.392c1.546,0.52,3.098,1.025,4.657,1.515c0.278,0.088,0.554,0.178,0.834,0.265
		c1.762,0.546,3.534,1.073,5.313,1.584c0.411,0.117,0.823,0.233,1.233,0.348c1.591,0.447,3.184,0.882,4.787,1.298
		c0.259,0.068,0.518,0.139,0.777,0.206c1.798,0.461,3.604,0.902,5.417,1.325c0.429,0.1,0.858,0.197,1.287,0.295
		c1.643,0.375,3.291,0.737,4.945,1.08c0.23,0.048,0.46,0.099,0.69,0.147c1.833,0.375,3.676,0.726,5.523,1.061
		c0.442,0.08,0.885,0.158,1.328,0.236c1.705,0.301,3.416,0.587,5.134,0.854c0.189,0.029,0.378,0.062,0.57,0.091
		c1.865,0.285,3.739,0.543,5.619,0.788c0.459,0.06,0.918,0.117,1.378,0.174c1.775,0.22,3.553,0.429,5.338,0.612
		c0.141,0.016,0.28,0.032,0.421,0.047c1.899,0.193,3.804,0.357,5.714,0.509c0.471,0.037,0.942,0.072,1.411,0.107
		c1.854,0.137,3.713,0.258,5.579,0.355c0.079,0.003,0.158,0.01,0.238,0.013c1.929,0.098,3.868,0.167,5.808,0.221
		c0.477,0.013,0.955,0.026,1.432,0.037c1.951,0.043,3.907,0.073,5.868,0.073c1.962,0,3.918-0.03,5.869-0.073
		c0.477-0.011,0.955-0.023,1.432-0.037c0.536-0.016,1.069-0.043,1.603-0.061C263.501,511.782,262.098,511.738,260.7,511.667z"/>
</g>
<g>
	<path style="fill:#D33F2F;" d="M405.956,106.05c-5.925-5.925-12.2-11.5-18.787-16.696H124.832
		c-6.587,5.196-12.863,10.771-18.788,16.696H405.956z"/>
	<path style="fill:#D33F2F;" d="M104.71,404.582c5.81,5.915,11.962,11.489,18.425,16.696h265.73
		c6.463-5.207,12.615-10.781,18.426-16.696H104.71z"/>
	<path style="fill:#D33F2F;" d="M456.363,325.776H171.116c-4.61,0-8.348,3.736-8.348,8.348c0,4.611,3.738,8.348,8.348,8.348h278.61
		C452.168,337.023,454.381,331.452,456.363,325.776z"/>
	<path style="fill:#D33F2F;" d="M137.938,325.776H55.637c1.982,5.678,4.194,11.247,6.635,16.696h75.667
		c4.61,0,8.348-3.736,8.348-8.348C146.286,329.512,142.548,325.776,137.938,325.776z"/>
	<path style="fill:#D33F2F;" d="M351.855,246.969H44.04c-0.126,2.996-0.206,6.005-0.206,9.031c0,2.568,0.063,5.12,0.154,7.664
		h307.868c4.61,0,8.348-3.736,8.348-8.348S356.466,246.969,351.855,246.969z"/>
	<path style="fill:#D33F2F;" d="M372.719,255.317c0,4.611,3.736,8.348,8.348,8.348h86.943c0.091-2.544,0.154-5.097,0.154-7.664
		c0-3.027-0.079-6.035-0.206-9.031h-86.891C376.457,246.969,372.719,250.705,372.719,255.317z"/>
	<path style="fill:#D33F2F;" d="M449.111,168.162H297.363c-4.611,0-8.348,3.736-8.348,8.348c0,4.611,3.736,8.348,8.348,8.348H455.88
		C453.854,179.178,451.598,173.608,449.111,168.162z"/>
	<path style="fill:#D33F2F;" d="M267.691,168.162H62.889c-2.487,5.446-4.744,11.017-6.77,16.696h211.572
		c4.611,0,8.348-3.736,8.348-8.348C276.039,171.898,272.302,168.162,267.691,168.162z"/>
</g>
<g>
</g>
<g>
</g>
<g>
</g>
<g>
</g>
<g>
</g>
<g>
</g>
<g>
</g>
<g>
</g>
<g>
</g>
<g>
</g>
<g>
</g>
<g>
</g>
<g>
</g>
<g>
</g>
<g>
</g>
</svg>
